<svg width="213" height="86" viewBox="0 0 213 86" fill="none" xmlns="http://www.w3.org/2000/svg">
<path d="M11.3299 75.1193C10.8299 75.1193 10.3796 75.0199 9.97906 74.821C9.5785 74.6221 9.25747 74.3494 9.016 74.0028C8.77452 73.6562 8.64242 73.2613 8.61969 72.8182H9.64242C9.68219 73.213 9.86117 73.5397 10.1793 73.7983C10.5004 74.054 10.8839 74.1818 11.3299 74.1818C11.6879 74.1818 12.0061 74.098 12.2845 73.9304C12.5657 73.7628 12.7859 73.5326 12.945 73.24C13.1069 72.9446 13.1879 72.6108 13.1879 72.2386C13.1879 71.8579 13.1041 71.5184 12.9365 71.2201C12.7717 70.919 12.5444 70.6818 12.2546 70.5085C11.9649 70.3352 11.6339 70.2471 11.2617 70.2443C10.9947 70.2415 10.7205 70.2826 10.4393 70.3679C10.158 70.4503 9.92651 70.5568 9.74469 70.6875L8.75605 70.5682L9.28446 66.2727H13.8186V67.2102H10.1708L9.86401 69.7841H9.91514C10.0941 69.642 10.3186 69.5241 10.5884 69.4304C10.8583 69.3366 11.1396 69.2897 11.4322 69.2897C11.9663 69.2897 12.4421 69.4176 12.8597 69.6733C13.2802 69.9261 13.6097 70.2727 13.8484 70.713C14.0899 71.1534 14.2106 71.6562 14.2106 72.2216C14.2106 72.7784 14.0856 73.2755 13.8356 73.713C13.5884 74.1477 13.2475 74.4915 12.8129 74.7443C12.3782 74.9943 11.8839 75.1193 11.3299 75.1193Z" fill="#959393"/>
<path d="M4.57565 75.1364C3.96201 75.1364 3.4336 74.9915 2.99042 74.7018C2.54724 74.412 2.20633 74.0129 1.9677 73.5043C1.72906 72.9958 1.60974 72.4148 1.60974 71.7614C1.60974 71.0967 1.7319 70.51 1.97622 70.0015C2.22338 69.4901 2.56713 69.091 3.00747 68.804C3.45065 68.5143 3.9677 68.3694 4.5586 68.3694C5.01883 68.3694 5.4336 68.4546 5.80292 68.6251C6.17224 68.7955 6.4748 69.0342 6.71059 69.341C6.94639 69.6478 7.0927 70.0057 7.14951 70.4148H6.14383C6.06713 70.1165 5.89667 69.8523 5.63247 69.6222C5.3711 69.3893 5.01883 69.2728 4.57565 69.2728C4.1836 69.2728 3.83985 69.3751 3.5444 69.5796C3.25179 69.7813 3.02309 70.0668 2.85832 70.4361C2.69639 70.8026 2.61542 71.233 2.61542 71.7273C2.61542 72.233 2.69497 72.6734 2.85406 73.0484C3.01599 73.4234 3.24326 73.7146 3.53588 73.9219C3.83133 74.1293 4.17792 74.233 4.57565 74.233C4.83701 74.233 5.07423 74.1876 5.2873 74.0967C5.50037 74.0057 5.68076 73.8751 5.82849 73.7046C5.97622 73.5342 6.08133 73.3296 6.14383 73.091H7.14951C7.0927 73.4773 6.95207 73.8254 6.72764 74.135C6.50605 74.4418 6.21201 74.6861 5.84554 74.868C5.4819 75.0469 5.0586 75.1364 4.57565 75.1364Z" fill="#959393"/>
<path d="M8.63779 53V52.233L11.5185 49.0796C11.8565 48.7103 12.1349 48.3892 12.3537 48.1165C12.5724 47.8409 12.7344 47.5824 12.8395 47.3409C12.9474 47.0966 13.0014 46.8409 13.0014 46.5739C13.0014 46.2671 12.9276 46.0015 12.7798 45.777C12.6349 45.5526 12.4361 45.3793 12.1832 45.2571C11.9304 45.135 11.6463 45.0739 11.331 45.0739C10.9957 45.0739 10.7031 45.1435 10.4531 45.2827C10.206 45.4191 10.0142 45.6108 9.87784 45.858C9.74432 46.1051 9.67756 46.3949 9.67756 46.7273H8.67188C8.67188 46.2159 8.78978 45.7671 9.02557 45.3807C9.26137 44.9944 9.58239 44.6932 9.98864 44.4773C10.3977 44.2614 10.8565 44.1534 11.3651 44.1534C11.8764 44.1534 12.3295 44.2614 12.7244 44.4773C13.1193 44.6932 13.429 44.9844 13.6534 45.3509C13.8778 45.7174 13.9901 46.125 13.9901 46.5739C13.9901 46.8949 13.9318 47.2088 13.8153 47.5157C13.7017 47.8196 13.5028 48.1591 13.2188 48.5341C12.9375 48.9063 12.5469 49.3608 12.0469 49.8978L10.0867 51.9944V52.0625H14.1435V53H8.63779Z" fill="#959393"/>
<path d="M5.80825 55.4546V51.9944H5.72302C5.64916 52.1137 5.54405 52.2643 5.40768 52.4461C5.27132 52.6251 5.07672 52.7856 4.82387 52.9276C4.57103 53.0668 4.23439 53.1364 3.81393 53.1364C3.26848 53.1364 2.78694 52.9986 2.36933 52.7231C1.95172 52.4447 1.62501 52.0526 1.38922 51.5469C1.15342 51.0384 1.03552 50.4376 1.03552 49.7444C1.03552 49.0569 1.15342 48.4603 1.38922 47.9546C1.62501 47.4489 1.95314 47.0583 2.37359 46.7827C2.79405 46.5072 3.27984 46.3694 3.83098 46.3694C4.25711 46.3694 4.59376 46.4404 4.84092 46.5825C5.09092 46.7217 5.28126 46.8807 5.41194 47.0597C5.54547 47.2359 5.64916 47.3807 5.72302 47.4944H5.84234V46.4546H6.81393V55.4546H5.80825ZM3.95029 52.233C4.3537 52.233 4.69461 52.1279 4.97302 51.9177C5.25143 51.7046 5.46308 51.4106 5.60797 51.0356C5.75285 50.6577 5.82529 50.2217 5.82529 49.7273C5.82529 49.2387 5.75427 48.8111 5.61223 48.4447C5.47018 48.0753 5.25995 47.7884 4.98154 47.5839C4.70314 47.3765 4.35939 47.2728 3.95029 47.2728C3.52416 47.2728 3.16904 47.3822 2.88495 47.6009C2.6037 47.8168 2.39206 48.1109 2.25001 48.483C2.11081 48.8523 2.0412 49.2671 2.0412 49.7273C2.0412 50.1932 2.11223 50.6165 2.25427 50.9972C2.39916 51.3751 2.61223 51.6762 2.89348 51.9006C3.17757 52.1222 3.52984 52.233 3.95029 52.233Z" fill="#959393"/>
<path d="M13.3935 22.2727V31H12.3367V23.3807H12.2855L10.1548 24.7954V23.7216L12.3367 22.2727H13.3935Z" fill="#959393"/>
<path d="M7.49575 33.4546V29.9944H7.41052C7.33666 30.1137 7.23155 30.2643 7.09518 30.4461C6.95882 30.6251 6.76422 30.7856 6.51137 30.9276C6.25853 31.0668 5.92189 31.1364 5.50143 31.1364C4.95598 31.1364 4.47444 30.9986 4.05683 30.7231C3.63922 30.4447 3.31251 30.0526 3.07672 29.5469C2.84092 29.0384 2.72302 28.4376 2.72302 27.7444C2.72302 27.0569 2.84092 26.4603 3.07672 25.9546C3.31251 25.4489 3.64064 25.0583 4.06109 24.7827C4.48155 24.5072 4.96734 24.3694 5.51848 24.3694C5.94461 24.3694 6.28126 24.4404 6.52842 24.5825C6.77842 24.7217 6.96876 24.8807 7.09944 25.0597C7.23297 25.2359 7.33666 25.3807 7.41052 25.4944H7.52984V24.4546H8.50143V33.4546H7.49575ZM5.63779 30.233C6.0412 30.233 6.38211 30.1279 6.66052 29.9177C6.93893 29.7046 7.15058 29.4106 7.29547 29.0356C7.44035 28.6577 7.51279 28.2217 7.51279 27.7273C7.51279 27.2387 7.44177 26.8111 7.29973 26.4447C7.15768 26.0754 6.94745 25.7884 6.66904 25.5839C6.39064 25.3765 6.04689 25.2728 5.63779 25.2728C5.21166 25.2728 4.85654 25.3822 4.57245 25.6009C4.2912 25.8168 4.07956 26.1109 3.93751 26.483C3.79831 26.8523 3.7287 27.2671 3.7287 27.7273C3.7287 28.1932 3.79973 28.6165 3.94177 28.9972C4.08666 29.3751 4.29973 29.6762 4.58098 29.9006C4.86507 30.1222 5.21734 30.233 5.63779 30.233Z" fill="#959393"/>
<path d="M11.25 9.11935C10.608 9.11935 10.0611 8.94464 9.60938 8.5952C9.15767 8.24293 8.8125 7.73299 8.57387 7.06537C8.33523 6.39492 8.21591 5.58526 8.21591 4.6364C8.21591 3.69322 8.33523 2.88782 8.57387 2.2202C8.81534 1.54975 9.16193 1.03839 9.61364 0.686112C10.0682 0.330999 10.6136 0.153442 11.25 0.153442C11.8864 0.153442 12.4304 0.330999 12.8821 0.686112C13.3367 1.03839 13.6832 1.54975 13.9219 2.2202C14.1634 2.88782 14.2841 3.69322 14.2841 4.6364C14.2841 5.58526 14.1648 6.39492 13.9261 7.06537C13.6875 7.73299 13.3423 8.24293 12.8906 8.5952C12.4389 8.94464 11.892 9.11935 11.25 9.11935ZM11.25 8.18185C11.8864 8.18185 12.3807 7.87503 12.733 7.2614C13.0852 6.64776 13.2614 5.77276 13.2614 4.6364C13.2614 3.88072 13.1804 3.23725 13.0185 2.706C12.8594 2.17475 12.6293 1.76992 12.3281 1.49151C12.0298 1.2131 11.6705 1.0739 11.25 1.0739C10.6193 1.0739 10.1264 1.38498 9.77131 2.00714C9.4162 2.62645 9.23864 3.50287 9.23864 4.6364C9.23864 5.39208 9.31818 6.03412 9.47728 6.56253C9.63637 7.09094 9.86506 7.49293 10.1634 7.7685C10.4645 8.04407 10.8267 8.18185 11.25 8.18185Z" fill="#959393"/>
<path d="M5.57387 11.4546V7.99438H5.48865C5.41478 8.1137 5.30967 8.26427 5.17331 8.44609C5.03694 8.62507 4.84234 8.78558 4.5895 8.92762C4.33666 9.06683 4.00001 9.13643 3.57956 9.13643C3.0341 9.13643 2.55257 8.99865 2.13495 8.72308C1.71734 8.44467 1.39064 8.05262 1.15484 7.54694C0.919045 7.03842 0.801147 6.43757 0.801147 5.74438C0.801147 5.05688 0.919045 4.46029 1.15484 3.95461C1.39064 3.44893 1.71876 3.05831 2.13922 2.78274C2.55967 2.50717 3.04547 2.36938 3.5966 2.36938C4.02274 2.36938 4.35939 2.44041 4.60654 2.58245C4.85654 2.72166 5.04689 2.88075 5.17757 3.05973C5.31109 3.23586 5.41478 3.38075 5.48865 3.49438H5.60797V2.45461H6.57956V11.4546H5.57387ZM3.71592 8.23302C4.11933 8.23302 4.46024 8.12791 4.73865 7.91768C5.01706 7.70461 5.2287 7.41058 5.37359 7.03558C5.51848 6.65774 5.59092 6.22166 5.59092 5.72734C5.59092 5.2387 5.5199 4.81115 5.37785 4.44467C5.23581 4.07535 5.02558 3.78842 4.74717 3.58387C4.46876 3.37649 4.12501 3.27279 3.71592 3.27279C3.28978 3.27279 2.93467 3.38217 2.65058 3.60092C2.36933 3.81683 2.15768 4.11086 2.01564 4.48302C1.87643 4.85234 1.80683 5.26711 1.80683 5.72734C1.80683 6.19325 1.87785 6.61654 2.0199 6.99723C2.16478 7.37507 2.37785 7.6762 2.6591 7.90063C2.94319 8.12223 3.29547 8.23302 3.71592 8.23302Z" fill="#959393"/>
<path d="M147.5 85.1194C146.858 85.1194 146.311 84.9446 145.859 84.5952C145.408 84.2429 145.063 83.733 144.824 83.0654C144.585 82.3949 144.466 81.5853 144.466 80.6364C144.466 79.6932 144.585 78.8878 144.824 78.2202C145.065 77.5497 145.412 77.0384 145.864 76.6861C146.318 76.331 146.864 76.1534 147.5 76.1534C148.136 76.1534 148.68 76.331 149.132 76.6861C149.587 77.0384 149.933 77.5497 150.172 78.2202C150.413 78.8878 150.534 79.6932 150.534 80.6364C150.534 81.5853 150.415 82.3949 150.176 83.0654C149.938 83.733 149.592 84.2429 149.141 84.5952C148.689 84.9446 148.142 85.1194 147.5 85.1194ZM147.5 84.1819C148.136 84.1819 148.631 83.875 148.983 83.2614C149.335 82.6478 149.511 81.7728 149.511 80.6364C149.511 79.8807 149.43 79.2372 149.268 78.706C149.109 78.1747 148.879 77.7699 148.578 77.4915C148.28 77.2131 147.92 77.0739 147.5 77.0739C146.869 77.0739 146.376 77.385 146.021 78.0071C145.666 78.6265 145.489 79.5029 145.489 80.6364C145.489 81.3921 145.568 82.0341 145.727 82.5625C145.886 83.0909 146.115 83.4929 146.413 83.7685C146.715 84.0441 147.077 84.1819 147.5 84.1819Z" fill="#959393"/>
<path fill-rule="evenodd" clip-rule="evenodd" d="M213 9H20V8H213V9Z" fill="#D9D9D9"/>
<path fill-rule="evenodd" clip-rule="evenodd" d="M213 29H20V28H213V29Z" fill="#D9D9D9"/>
<path fill-rule="evenodd" clip-rule="evenodd" d="M213 49H20V48H213V49Z" fill="#D9D9D9"/>
<path fill-rule="evenodd" clip-rule="evenodd" d="M213 72H20V71H213V72Z" fill="#D9D9D9"/>
<path d="M79 48.5C79 53.1944 75.1944 57 70.5 57C65.8056 57 62 53.1944 62 48.5C62 43.8056 65.8056 40 70.5 40C75.1944 40 79 43.8056 79 48.5Z" fill="#4887FA"/>
<path fill-rule="evenodd" clip-rule="evenodd" d="M75 49L66 49L66 48L75 48L75 49Z" fill="white"/>
<path fill-rule="evenodd" clip-rule="evenodd" d="M70 53L70 44L71 44L71 53L70 53Z" fill="white"/>
<path d="M104 48.5C104 53.1944 100.194 57 95.5 57C90.8056 57 87 53.1944 87 48.5C87 43.8056 90.8056 40 95.5 40C100.194 40 104 43.8056 104 48.5Z" fill="#4887FA"/>
<path d="M73 28.5C73 29.8807 71.8807 31 70.5 31C69.1193 31 68 29.8807 68 28.5C68 27.1193 69.1193 26 70.5 26C71.8807 26 73 27.1193 73 28.5Z" fill="#4887FA"/>
<path fill-rule="evenodd" clip-rule="evenodd" d="M100 49L91 49L91 48L100 48L100 49Z" fill="white"/>
<path fill-rule="evenodd" clip-rule="evenodd" d="M95 53L95 44L96 44L96 53L95 53Z" fill="white"/>
<path fill-rule="evenodd" clip-rule="evenodd" d="M71 27V41H70V27H71Z" fill="#4887FA"/>
<path fill-rule="evenodd" clip-rule="evenodd" d="M96 8.5V41H95V8.5H96Z" fill="#4887FA"/>
<path d="M98 8.5C98 9.88071 96.8807 11 95.5 11C94.1193 11 93 9.88071 93 8.5C93 7.11929 94.1193 6 95.5 6C96.8807 6 98 7.11929 98 8.5Z" fill="#4887FA"/>
<path fill-rule="evenodd" clip-rule="evenodd" d="M147 70L147 17L148 17L148 70L147 70Z" fill="#959393"/>
<path d="M147.5 72L149.665 68.25H145.335L147.5 72Z" fill="#959393"/>
<path fill-rule="evenodd" clip-rule="evenodd" d="M172 70L172 44L173 44L173 70L172 70Z" fill="#959393"/>
<path d="M172.5 72L174.665 68.25H170.335L172.5 72Z" fill="#959393"/>
<path fill-rule="evenodd" clip-rule="evenodd" d="M197 70L197 27.5L198 27.5L198 70L197 70Z" fill="#959393"/>
<path d="M197.5 72L199.665 68.25H195.335L197.5 72Z" fill="#959393"/>
<path d="M37 3C37 1.34315 38.3432 0 40 0H51C52.6569 0 54 1.34315 54 3V14C54 15.6569 52.6569 17 51 17H40C38.3432 17 37 15.6569 37 14V3Z" fill="#4887FA"/>
<path d="M42.0918 12.1857V4.18567H43.7832V7.48645H47.2168V4.18567H48.9043V12.1857H47.2168V8.88098H43.7832V12.1857H42.0918Z" fill="white"/>
<path d="M113 3C113 1.34315 114.343 0 116 0H127C128.657 0 130 1.34315 130 3V14C130 15.6569 128.657 17 127 17H116C114.343 17 113 15.6569 113 14V3Z" fill="#4887FA"/>
<path d="M118.092 12.1857V4.18567H119.783V7.48645H123.217V4.18567H124.904V12.1857H123.217V8.88098H119.783V12.1857H118.092Z" fill="white"/>
<path d="M139 3C139 1.34315 140.343 0 142 0H153C154.657 0 156 1.34315 156 3V14C156 15.6569 154.657 17 153 17H142C140.343 17 139 15.6569 139 14V3Z" fill="#959393"/>
<g clip-path="url(#clip0_452_2863)">
<path d="M150.828 5.48934L152.453 3.40423H150.945V3.08508H152.91V3.39714L151.277 5.46806H152.91V5.7943H150.821V5.48934H150.828Z" fill="white"/>
<path fill-rule="evenodd" clip-rule="evenodd" d="M150.82 2.96008H153.035V3.44049L151.535 5.34306H153.035V5.9193H150.696V5.36434H150.767L152.198 3.52923H150.82V2.96008ZM151.07 3.21008V3.27923H152.709L150.946 5.54118V5.6693H152.785V5.59306H151.02L152.785 3.35379V3.21008H151.07Z" fill="white"/>
<path fill-rule="evenodd" clip-rule="evenodd" d="M147.334 8.18091C144.868 8.18091 142.846 10.2361 142.846 12.7944H141.846C141.846 9.70732 144.293 7.18091 147.334 7.18091C150.375 7.18091 152.822 9.70732 152.822 12.7944H151.822C151.822 10.2361 149.8 8.18091 147.334 8.18091Z" fill="white"/>
<path d="M147.369 13C147.816 13 148.178 12.6285 148.178 12.1702C148.178 11.712 147.816 11.3405 147.369 11.3405C146.922 11.3405 146.559 11.712 146.559 12.1702C146.559 12.6285 146.922 13 147.369 13Z" fill="white"/>
<path fill-rule="evenodd" clip-rule="evenodd" d="M151.837 7.03725L147.769 12.4699L146.968 11.8705L151.036 6.43787L151.837 7.03725Z" fill="white"/>
</g>
<path d="M164 42C164 40.3431 165.343 39 167 39H178C179.657 39 181 40.3431 181 42V53C181 54.6569 179.657 56 178 56H167C165.343 56 164 54.6569 164 53V42Z" fill="#959393"/>
<g clip-path="url(#clip1_452_2863)">
<path d="M175.828 44.4893L177.453 42.4042H175.945V42.0851H177.91V42.3971L176.277 44.4681H177.91V44.7943H175.821V44.4893H175.828Z" fill="white"/>
<path fill-rule="evenodd" clip-rule="evenodd" d="M175.82 41.9601H178.035V42.4405L176.535 44.3431H178.035V44.9193H175.696V44.3643H175.767L177.198 42.5292H175.82V41.9601ZM176.07 42.2101V42.2792H177.709L175.946 44.5412V44.6693H177.785V44.5931H176.02L177.785 42.3538V42.2101H176.07Z" fill="white"/>
<path fill-rule="evenodd" clip-rule="evenodd" d="M172.334 47.1809C169.868 47.1809 167.846 49.2361 167.846 51.7944H166.846C166.846 48.7073 169.293 46.1809 172.334 46.1809C175.375 46.1809 177.822 48.7073 177.822 51.7944H176.822C176.822 49.2361 174.8 47.1809 172.334 47.1809Z" fill="white"/>
<path d="M172.369 52C172.816 52 173.178 51.6285 173.178 51.1702C173.178 50.712 172.816 50.3405 172.369 50.3405C171.922 50.3405 171.559 50.712 171.559 51.1702C171.559 51.6285 171.922 52 172.369 52Z" fill="white"/>
<path fill-rule="evenodd" clip-rule="evenodd" d="M176.837 46.0372L172.769 51.4699L171.968 50.8705L176.036 45.4379L176.837 46.0372Z" fill="white"/>
</g>
<path d="M189 23C189 21.3431 190.343 20 192 20H203C204.657 20 206 21.3431 206 23V34C206 35.6569 204.657 37 203 37H192C190.343 37 189 35.6569 189 34V23Z" fill="#959393"/>
<g clip-path="url(#clip2_452_2863)">
<path d="M200.828 25.4893L202.453 23.4042H200.945V23.0851H202.91V23.3971L201.277 25.4681H202.91V25.7943H200.821V25.4893H200.828Z" fill="white"/>
<path fill-rule="evenodd" clip-rule="evenodd" d="M200.82 22.9601H203.035V23.4405L201.535 25.3431H203.035V25.9193H200.696V25.3643H200.767L202.198 23.5292H200.82V22.9601ZM201.07 23.2101V23.2792H202.709L200.946 25.5412V25.6693H202.785V25.5931H201.02L202.785 23.3538V23.2101H201.07Z" fill="white"/>
<path fill-rule="evenodd" clip-rule="evenodd" d="M197.334 28.1809C194.868 28.1809 192.846 30.2361 192.846 32.7944H191.846C191.846 29.7073 194.293 27.1809 197.334 27.1809C200.375 27.1809 202.822 29.7073 202.822 32.7944H201.822C201.822 30.2361 199.8 28.1809 197.334 28.1809Z" fill="white"/>
<path d="M197.369 33C197.816 33 198.178 32.6285 198.178 32.1702C198.178 31.712 197.816 31.3405 197.369 31.3405C196.922 31.3405 196.559 31.712 196.559 32.1702C196.559 32.6285 196.922 33 197.369 33Z" fill="white"/>
<path fill-rule="evenodd" clip-rule="evenodd" d="M201.837 27.0372L197.769 32.4699L196.968 31.8705L201.036 26.4379L201.837 27.0372Z" fill="white"/>
</g>
<path d="M37 23C37 21.3431 38.3432 20 40 20H51C52.6569 20 54 21.3431 54 23V34C54 35.6569 52.6569 37 51 37H40C38.3432 37 37 35.6569 37 34V23Z" fill="#4887FA"/>
<path d="M42.0918 32.1857V24.1857H43.7832V27.4865H47.2168V24.1857H48.9043V32.1857H47.2168V28.881H43.7832V32.1857H42.0918Z" fill="white"/>
<path d="M113 23C113 21.3431 114.343 20 116 20H127C128.657 20 130 21.3431 130 23V34C130 35.6569 128.657 37 127 37H116C114.343 37 113 35.6569 113 34V23Z" fill="#4887FA"/>
<path d="M118.092 32.1857V24.1857H119.783V27.4865H123.217V24.1857H124.904V32.1857H123.217V28.881H119.783V32.1857H118.092Z" fill="white"/>
<path d="M113 43C113 41.3431 114.343 40 116 40H127C128.657 40 130 41.3431 130 43V54C130 55.6569 128.657 57 127 57H116C114.343 57 113 55.6569 113 54V43Z" fill="#4887FA"/>
<path d="M118.092 52.1857V44.1857H119.783V47.4865H123.217V44.1857H124.904V52.1857H123.217V48.881H119.783V52.1857H118.092Z" fill="white"/>
<path d="M37 43C37 41.3431 38.3432 40 40 40H51C52.6569 40 54 41.3431 54 43V54C54 55.6569 52.6569 57 51 57H40C38.3432 57 37 55.6569 37 54V43Z" fill="#43D787"/>
<path d="M43.8496 44.1857L45.4629 46.9122H45.5254L47.1465 44.1857H49.0567L46.6152 48.1857L49.1113 52.1857H47.166L45.5254 49.4552H45.4629L43.8223 52.1857H41.8848L44.3887 48.1857L41.9317 44.1857H43.8496Z" fill="white"/>
<path d="M173.183 76.2727V85H172.126V77.3807H172.075L169.944 78.7954V77.7216L172.126 76.2727H173.183Z" fill="#959393"/>
<path d="M194.271 85V84.233L197.151 81.0796C197.489 80.7103 197.768 80.3892 197.987 80.1165C198.205 79.8409 198.367 79.5824 198.472 79.3409C198.58 79.0966 198.634 78.8409 198.634 78.5739C198.634 78.2671 198.56 78.0015 198.413 77.777C198.268 77.5526 198.069 77.3793 197.816 77.2571C197.563 77.135 197.279 77.0739 196.964 77.0739C196.629 77.0739 196.336 77.1435 196.086 77.2827C195.839 77.4191 195.647 77.6108 195.511 77.858C195.377 78.1051 195.31 78.3949 195.31 78.7273H194.305C194.305 78.2159 194.423 77.7671 194.658 77.3807C194.894 76.9944 195.215 76.6932 195.621 76.4773C196.031 76.2614 196.489 76.1534 196.998 76.1534C197.509 76.1534 197.962 76.2614 198.357 76.4773C198.752 76.6932 199.062 76.9844 199.286 77.3509C199.511 77.7174 199.623 78.125 199.623 78.5739C199.623 78.8949 199.565 79.2088 199.448 79.5157C199.335 79.8196 199.136 80.1591 198.852 80.5341C198.57 80.9063 198.18 81.3608 197.68 81.8978L195.719 83.9944V84.0625H199.776V85H194.271Z" fill="#959393"/>
<defs>
<clipPath id="clip0_452_2863">
<rect width="11" height="10" fill="white" transform="translate(142 3)"/>
</clipPath>
<clipPath id="clip1_452_2863">
<rect width="11" height="10" fill="white" transform="translate(167 42)"/>
</clipPath>
<clipPath id="clip2_452_2863">
<rect width="11" height="10" fill="white" transform="translate(192 23)"/>
</clipPath>
</defs>
</svg>
